<svg width="196" height="196" viewBox="0 0 196 196" fill="none" xmlns="http://www.w3.org/2000/svg">
<path d="M50 126H145V133C145 157.853 124.853 178 100 178H95C70.1472 178 50 157.853 50 133V126Z" fill="black"/>
<path d="M39.1328 112.539L51.3008 116.797V122.441L34.2305 115.352V111.27L39.1328 112.539ZM51.3008 109.082L39.1328 113.418L34.2305 114.648V110.547L51.3008 103.457V109.082ZM72.3359 115.469H78.6641C78.5599 117.422 78.026 119.147 77.0625 120.645C76.112 122.129 74.7904 123.294 73.0977 124.141C71.4049 124.974 69.3932 125.391 67.0625 125.391C65.2005 125.391 63.5339 125.072 62.0625 124.434C60.5911 123.796 59.3411 122.884 58.3125 121.699C57.2969 120.501 56.5156 119.062 55.9688 117.383C55.4349 115.69 55.168 113.783 55.168 111.66V109.922C55.168 107.799 55.4479 105.892 56.0078 104.199C56.5677 102.507 57.3685 101.061 58.4102 99.8633C59.4518 98.6654 60.7018 97.7474 62.1602 97.1094C63.6185 96.4714 65.2461 96.1523 67.043 96.1523C69.4648 96.1523 71.5091 96.5885 73.1758 97.4609C74.8424 98.3333 76.1315 99.5312 77.043 101.055C77.9674 102.578 78.5208 104.316 78.7031 106.27H72.3555C72.3034 105.163 72.0951 104.232 71.7305 103.477C71.3659 102.708 70.806 102.129 70.0508 101.738C69.2956 101.348 68.293 101.152 67.043 101.152C66.1315 101.152 65.3307 101.322 64.6406 101.66C63.9635 101.999 63.3971 102.526 62.9414 103.242C62.4987 103.958 62.1667 104.87 61.9453 105.977C61.724 107.07 61.6133 108.372 61.6133 109.883V111.66C61.6133 113.158 61.7109 114.453 61.9062 115.547C62.1016 116.641 62.4141 117.546 62.8438 118.262C63.2865 118.978 63.8529 119.512 64.543 119.863C65.2331 120.215 66.0729 120.391 67.0625 120.391C68.1953 120.391 69.1393 120.215 69.8945 119.863C70.6497 119.499 71.2292 118.952 71.6328 118.223C72.0365 117.493 72.2708 116.576 72.3359 115.469ZM88.5664 96.5625V125H82.1992V96.5625H88.5664ZM99.7578 108.555V113.477H86.7891V108.555H99.7578ZM101.008 96.5625V101.504H86.7891V96.5625H101.008ZM113.117 125H106.867L106.906 120.078H113.117C114.536 120.078 115.734 119.753 116.711 119.102C117.688 118.438 118.43 117.461 118.938 116.172C119.445 114.87 119.699 113.288 119.699 111.426V110.117C119.699 108.711 119.556 107.474 119.27 106.406C118.983 105.326 118.56 104.421 118 103.691C117.44 102.962 116.743 102.415 115.91 102.051C115.09 101.686 114.146 101.504 113.078 101.504H106.75V96.5625H113.078C115.005 96.5625 116.763 96.888 118.352 97.5391C119.953 98.1901 121.333 99.1211 122.492 100.332C123.664 101.543 124.569 102.975 125.207 104.629C125.845 106.283 126.164 108.125 126.164 110.156V111.426C126.164 113.444 125.845 115.286 125.207 116.953C124.569 118.607 123.664 120.039 122.492 121.25C121.333 122.448 119.96 123.372 118.371 124.023C116.783 124.674 115.031 125 113.117 125ZM110.48 96.5625V125H104.113V96.5625H110.48ZM141.789 96.5625L131.73 127.441H127.297L137.355 96.5625H141.789ZM156.594 113.32L144.406 109.082V103.457L161.516 110.547V114.668L156.594 113.32ZM144.406 116.855L156.613 112.5L161.516 111.27V115.371L144.406 122.461V116.855Z" fill="black"/>
<path d="M68.0627 60.6519C68.3821 54.8593 73.1743 46 73.1743 46C73.1743 46 71.2574 55.5407 71.5769 60.6519C71.8964 65.763 72.5354 65.0815 73.4938 68.8296C74.4522 72.5778 73.8133 74.2815 73.4938 77.0074C73.1743 79.7333 72.8549 80.0741 72.2159 83.4815C71.5769 86.8889 69.9795 92 69.9795 92C69.9795 92 70.299 84.3333 70.299 81.437C70.299 78.5407 70.6185 74.6222 69.6601 70.5333C68.7017 66.4444 67.7432 66.4444 68.0627 60.6519Z" fill="black"/>
<path d="M68.0627 60.6519C68.3821 54.8593 73.1743 46 73.1743 46C73.1743 46 71.2574 55.5407 71.5769 60.6519C71.8964 65.763 72.5354 65.0815 73.4938 68.8296C74.4522 72.5778 73.8133 74.2815 73.4938 77.0074C73.1743 79.7333 72.8549 80.0741 72.2159 83.4815C71.5769 86.8889 69.9795 92 69.9795 92C69.9795 92 70.299 84.3333 70.299 81.437C70.299 78.5407 70.6185 74.6222 69.6601 70.5333C68.7017 66.4444 67.7432 66.4444 68.0627 60.6519Z" fill="black"/>
<path d="M68.0627 60.6519C68.3821 54.8593 73.1743 46 73.1743 46C73.1743 46 71.2574 55.5407 71.5769 60.6519C71.8964 65.763 72.5354 65.0815 73.4938 68.8296C74.4522 72.5778 73.8133 74.2815 73.4938 77.0074C73.1743 79.7333 72.8549 80.0741 72.2159 83.4815C71.5769 86.8889 69.9795 92 69.9795 92C69.9795 92 70.299 84.3333 70.299 81.437C70.299 78.5407 70.6185 74.6222 69.6601 70.5333C68.7017 66.4444 67.7432 66.4444 68.0627 60.6519Z" fill="black"/>
<path d="M99.9582 38.7481C99.7452 30.9407 96.5504 19 96.5504 19C96.5504 19 97.8284 31.8593 97.6154 38.7481C97.4024 45.637 96.9764 44.7185 96.3375 49.7704C95.6985 54.8222 96.1245 57.1185 96.3375 60.7926C96.5505 64.4667 96.7634 64.9259 97.1894 69.5185C97.6154 74.1111 98.6803 81 98.6803 81C98.6803 81 98.4673 70.6667 98.4673 66.763C98.4673 62.8593 98.2544 57.5778 98.8933 52.0667C99.5322 46.5556 100.171 46.5556 99.9582 38.7481Z" fill="black"/>
<path d="M99.9582 38.7481C99.7452 30.9407 96.5504 19 96.5504 19C96.5504 19 97.8284 31.8593 97.6154 38.7481C97.4024 45.637 96.9764 44.7185 96.3375 49.7704C95.6985 54.8222 96.1245 57.1185 96.3375 60.7926C96.5505 64.4667 96.7634 64.9259 97.1894 69.5185C97.6154 74.1111 98.6803 81 98.6803 81C98.6803 81 98.4673 70.6667 98.4673 66.763C98.4673 62.8593 98.2544 57.5778 98.8933 52.0667C99.5322 46.5556 100.171 46.5556 99.9582 38.7481Z" fill="black"/>
<path d="M99.9582 38.7481C99.7452 30.9407 96.5504 19 96.5504 19C96.5504 19 97.8284 31.8593 97.6154 38.7481C97.4024 45.637 96.9764 44.7185 96.3375 49.7704C95.6985 54.8222 96.1245 57.1185 96.3375 60.7926C96.5505 64.4667 96.7634 64.9259 97.1894 69.5185C97.6154 74.1111 98.6803 81 98.6803 81C98.6803 81 98.4673 70.6667 98.4673 66.763C98.4673 62.8593 98.2544 57.5778 98.8933 52.0667C99.5322 46.5556 100.171 46.5556 99.9582 38.7481Z" fill="black"/>
<path d="M118.042 64.7407C118.255 59.7037 121.45 52 121.45 52C121.45 52 120.172 60.2963 120.385 64.7407C120.598 69.1852 121.024 68.5926 121.663 71.8519C122.301 75.1111 121.876 76.5926 121.663 78.963C121.45 81.3333 121.237 81.6296 120.811 84.5926C120.385 87.5556 119.32 92 119.32 92C119.32 92 119.533 85.3333 119.533 82.8148C119.533 80.2963 119.746 76.8889 119.107 73.3333C118.468 69.7778 117.829 69.7778 118.042 64.7407Z" fill="black"/>
<path d="M118.042 64.7407C118.255 59.7037 121.45 52 121.45 52C121.45 52 120.172 60.2963 120.385 64.7407C120.598 69.1852 121.024 68.5926 121.663 71.8519C122.301 75.1111 121.876 76.5926 121.663 78.963C121.45 81.3333 121.237 81.6296 120.811 84.5926C120.385 87.5556 119.32 92 119.32 92C119.32 92 119.533 85.3333 119.533 82.8148C119.533 80.2963 119.746 76.8889 119.107 73.3333C118.468 69.7778 117.829 69.7778 118.042 64.7407Z" fill="black"/>
<path d="M118.042 64.7407C118.255 59.7037 121.45 52 121.45 52C121.45 52 120.172 60.2963 120.385 64.7407C120.598 69.1852 121.024 68.5926 121.663 71.8519C122.301 75.1111 121.876 76.5926 121.663 78.963C121.45 81.3333 121.237 81.6296 120.811 84.5926C120.385 87.5556 119.32 92 119.32 92C119.32 92 119.533 85.3333 119.533 82.8148C119.533 80.2963 119.746 76.8889 119.107 73.3333C118.468 69.7778 117.829 69.7778 118.042 64.7407Z" fill="black"/>
</svg>
